<svg xmlns="http://www.w3.org/2000/svg" viewBox="0 0 800 800" role="img" aria-labelledby="title desc">
    <title id="title">Seasonal Wardrobe Placeholder</title>
    <desc id="desc">A neutral placeholder image for Seasonal Wardrobe products.</desc>
    <defs>
        <linearGradient id="bg" x1="0%" y1="0%" x2="100%" y2="100%">
            <stop offset="0%" stop-color="#fbf6f0" />
            <stop offset="100%" stop-color="#eadfd4" />
        </linearGradient>
    </defs>
    <rect width="800" height="800" fill="url(#bg)" />
    <rect x="88" y="88" width="624" height="624" rx="36" fill="none" stroke="#d6c7b8" stroke-width="8" stroke-dasharray="14 14" />
    <path d="M330 255c0-39.765 32.235-72 72-72 39.765 0 72 32.235 72 72 0 33.525-22.917 61.697-54 69.706V365h92c13.255 0 24 10.745 24 24v167c0 13.255-10.745 24-24 24H288c-13.255 0-24-10.745-24-24V389c0-13.255 10.745-24 24-24h92v-40.294c-31.083-8.009-54-36.181-54-69.706zm72-28c-15.464 0-28 12.536-28 28s12.536 28 28 28 28-12.536 28-28-12.536-28-28-28z" fill="#b99c81" opacity="0.92" />
    <circle cx="302" cy="474" r="18" fill="#d9cabd" />
    <circle cx="502" cy="474" r="18" fill="#d9cabd" />
    <text x="400" y="650" text-anchor="middle" fill="#5e4f43" font-family="Arial, sans-serif" font-size="38" font-weight="700" letter-spacing="3">
        SEASONAL WARDROBE
    </text>
</svg>
